<?xml version="1.0" standalone="no"?>
<!DOCTYPE svg PUBLIC "-//W3C//DTD SVG 20010904//EN"
 "http://www.w3.org/TR/2001/REC-SVG-20010904/DTD/svg10.dtd">
<svg version="1.0" xmlns="http://www.w3.org/2000/svg"
 width="500.000000pt" height="500.000000pt" viewBox="0 0 500.000000 500.000000"
 preserveAspectRatio="xMidYMid meet">
<metadata>
Created by potrace 1.14, written by Peter Selinger 2001-2017
</metadata>
<g transform="translate(0.000000,500.000000) scale(0.100000,-0.100000)"
fill="#000000" stroke="none">
<path d="M3535 3939 c-308 -19 -549 -60 -724 -121 -127 -44 -371 -167 -495
-248 -143 -95 -283 -234 -369 -365 -95 -146 -110 -157 -204 -164 -89 -7 -112
-17 -315 -143 -168 -104 -228 -159 -276 -257 -34 -70 -37 -82 -40 -182 -5
-118 17 -247 44 -270 17 -14 32 -7 209 91 81 45 165 78 236 94 24 5 31 -2 88
-92 33 -54 61 -102 61 -106 0 -5 -42 -69 -93 -145 -133 -194 -147 -220 -147
-274 l0 -47 48 0 c33 0 110 22 262 76 161 57 223 74 248 71 31 -6 229 -127
244 -151 13 -19 8 -148 -7 -213 -19 -83 -62 -173 -119 -252 -47 -67 -60 -117
-33 -139 17 -14 144 -52 173 -52 33 0 195 77 284 135 103 66 155 111 207 180
102 133 139 269 128 461 -4 72 -3 119 4 131 5 11 60 48 121 82 400 224 664
562 765 982 27 113 43 261 52 489 5 125 2 157 -15 230 -26 108 -54 173 -83
194 -26 18 -47 18 -254 5z m180 -118 c7 -12 -9 -15 -225 -41 -91 -11 -228 -32
-305 -46 -114 -21 -145 -24 -169 -15 -17 7 -25 15 -20 20 11 11 245 57 379 75
118 16 331 20 340 7z m-666 -313 c187 -184 311 -297 488 -446 67 -56 125 -111
128 -122 14 -45 -74 -245 -162 -369 -98 -137 -259 -284 -416 -380 -161 -98
-306 -159 -609 -257 -136 -44 -175 -53 -208 -48 -22 4 -40 10 -40 15 0 5 42
84 93 176 255 458 270 490 251 560 -8 29 -76 40 -131 23 -56 -19 -228 -102
-308 -151 -83 -50 -240 -166 -274 -203 -14 -14 -28 -26 -32 -26 -11 0 -59 127
-59 158 1 79 65 312 126 455 114 266 338 513 586 647 73 39 269 125 318 140
50 14 81 -8 249 -172z m311 152 c0 -5 -2 -10 -5 -10 -3 0 -49 -11 -102 -25
-100 -26 -153 -26 -153 1 0 8 1 14 3 15 1 0 43 7 92 14 114 16 165 18 165 5z
m245 -176 c-98 -35 -245 -74 -277 -74 -21 0 -28 5 -28 19 0 16 12 21 68 30 37
7 114 20 172 30 139 25 148 24 65 -5z m149 -79 c3 -9 0 -18 -7 -20 -183 -59
-244 -75 -292 -75 -42 0 -55 4 -55 15 0 8 10 17 23 20 203 48 313 74 318 74 4
1 10 -6 13 -14z m6 -132 c0 -45 -90 -103 -160 -103 -30 0 -90 43 -78 55 9 9
196 63 221 64 10 1 17 -6 17 -16z m-2240 -693 c0 -5 -6 -10 -12 -10 -7 0 -73
-11 -146 -24 -113 -20 -134 -21 -139 -9 -3 7 -3 16 -1 19 7 6 200 31 256 33
23 0 42 -3 42 -9z m139 1 c17 -11 7 -63 -17 -84 -10 -9 -90 -27 -202 -46 -102
-17 -195 -34 -207 -36 -18 -4 -23 -1 -23 14 0 24 35 33 235 61 186 26 199 30
190 70 -7 31 0 36 24 21z m321 -602 c17 -6 29 -13 26 -16 -4 -4 -247 -42 -273
-43 -21 0 -4 25 29 45 61 35 140 41 218 14z m850 -194 c0 -8 -3 -15 -6 -15
-11 0 -349 -61 -366 -66 -11 -3 -18 0 -18 8 0 10 50 25 168 50 194 41 222 44
222 23z m-320 -251 c-37 -16 -70 -42 -70 -56 0 -4 27 -8 60 -8 33 0 60 -4 60
-8 0 -5 -33 -18 -72 -29 -71 -19 -73 -19 -82 -1 -6 11 -5 33 3 58 12 42 40 58
106 59 l30 0 -35 -15z m145 -173 c-9 -7 -206 -31 -258 -31 -9 0 -17 6 -17 14
0 10 30 17 118 25 64 7 124 13 132 15 20 4 37 -12 25 -23z"/>
<path d="M2799 3307 c-75 -31 -142 -81 -176 -129 -42 -61 -45 -149 -8 -217 34
-61 124 -150 185 -182 35 -17 66 -24 137 -27 83 -4 97 -2 150 22 72 33 107 66
140 131 48 92 24 219 -61 336 -49 66 -90 83 -211 87 -86 2 -108 -1 -156 -21z
m97 -80 c-183 -104 -194 -141 -86 -287 63 -84 60 -100 -7 -51 -68 49 -123 135
-123 191 0 43 66 112 133 138 92 37 140 42 83 9z m128 -122 c31 -26 59 -57 62
-69 7 -28 -18 -81 -45 -96 -32 -16 -91 -12 -130 11 -44 25 -91 84 -91 114 0
38 66 81 132 84 9 1 41 -19 72 -44z"/>
</g>
</svg>
